<?xml version="1.0" encoding="utf-8"?>
<!-- Generator: Adobe Illustrator 19.0.0, SVG Export Plug-In . SVG Version: 6.00 Build 0)  -->
<svg version="1.1" id="Layer_1" xmlns="http://www.w3.org/2000/svg" xmlns:xlink="http://www.w3.org/1999/xlink" x="0px" y="0px"
	 viewBox="0 0 500 500" style="enable-background:new 0 0 500 500;" xml:space="preserve">
<style type="text/css">
	.st0{fill:#DC4E41;}
	.st1{fill:#FFFFFF;}
</style>
<g id="XMLID_43_">
	<path id="XMLID_45_" class="st0" d="M71.4,210.5h357.1c2.2,0,3.9,1.8,3.9,3.9v71c0,2.2-1.8,3.9-3.9,3.9H71.4
		c-2.2,0-3.9-1.8-3.9-3.9v-71C67.5,212.3,69.3,210.5,71.4,210.5z"/>
	<path id="XMLID_47_" class="st1" d="M99.1,248v4.7h7.8c-0.3,2-2.4,6-7.8,6c-4.7,0-8.6-3.9-8.6-8.7s3.8-8.7,8.6-8.7
		c2.7,0,4.5,1.1,5.5,2.1l3.7-3.6c-2.4-2.2-5.5-3.6-9.3-3.6c-7.6,0-13.8,6.2-13.8,13.8s6.2,13.8,13.8,13.8c8,0,13.3-5.6,13.3-13.5
		c0-0.9-0.1-1.6-0.2-2.3H99.1z"/>
	<polyline id="XMLID_48_" class="st1" points="128.7,248 124.7,248 124.7,244.1 120.8,244.1 120.8,248 116.8,248 116.8,252 
		120.8,252 120.8,255.9 124.7,255.9 124.7,252 128.7,252 	"/>
	<path id="XMLID_84_" class="st1" d="M399.2,248.1c0.7-0.7,1.5-1.1,2.5-1.1c1,0,1.9,0.4,2.5,1.1c0.6,0.7,1,1.7,1,3v0.2h-7.3
		C398.1,249.9,398.5,248.9,399.2,248.1z M397.2,258.2c1.2,1.3,2.9,1.9,4.8,1.9c2.4,0,4.3-0.9,5.5-2.8l-1.5-1.2
		c-0.5,0.6-1,1.1-1.6,1.4c-0.6,0.4-1.4,0.5-2.2,0.5c-1.2,0-2.3-0.4-3.1-1.3c-0.8-0.9-1.2-2-1.3-3.5h9.9v-1c0-2.3-0.5-4.1-1.6-5.4
		c-1.1-1.3-2.5-1.9-4.4-1.9c-1.2,0-2.2,0.3-3.2,1c-1,0.6-1.8,1.5-2.3,2.7c-0.6,1.1-0.8,2.4-0.8,3.9v0.5
		C395.4,255.1,396,256.9,397.2,258.2z M391.6,259.9v-20.7h-2.5v20.7H391.6z M375.9,248.5c0.7-0.9,1.6-1.4,2.9-1.4
		c1.5,0,2.7,0.7,3.4,2.1v6.7c-0.7,1.4-1.9,2.1-3.5,2.1c-1.2,0-2.2-0.5-2.8-1.4c-0.7-0.9-1-2.2-1-3.9
		C374.9,250.9,375.2,249.5,375.9,248.5z M374,258.1c1.1,1.4,2.4,2.1,4.1,2.1c1.7,0,3.1-0.6,4.1-1.7v1.3c0,1.2-0.3,2.2-1,2.9
		c-0.7,0.7-1.6,1-2.8,1c-1.5,0-2.9-0.7-3.9-2l-1.3,1.5c0.5,0.8,1.3,1.4,2.3,1.8c1,0.4,2,0.7,3.1,0.7c1.9,0,3.4-0.5,4.5-1.6
		c1.1-1.1,1.7-2.6,1.7-4.5v-14.2h-2.3l-0.1,1.6c-1-1.3-2.4-1.9-4.2-1.9c-1.7,0-3.1,0.7-4.2,2c-1.1,1.3-1.6,3.2-1.6,5.4
		C372.4,254.8,372.9,256.7,374,258.1z M359.8,248.5c0.8-1,1.8-1.5,3-1.5c1.3,0,2.3,0.5,3,1.5c0.8,1,1.1,2.3,1.1,3.9
		c0,1.8-0.4,3.2-1.1,4.2c-0.7,1-1.8,1.5-3,1.5c-1.3,0-2.3-0.5-3-1.5c-0.8-1-1.1-2.3-1.1-3.9C358.6,250.9,359,249.5,359.8,248.5z
		 M358,258.1c1.2,1.4,2.8,2.1,4.8,2.1c1.3,0,2.5-0.3,3.5-0.9c1-0.6,1.8-1.5,2.3-2.6c0.5-1.1,0.8-2.4,0.8-3.8v-0.2
		c0-2.3-0.6-4.1-1.8-5.5s-2.8-2.1-4.8-2.1c-1.3,0-2.4,0.3-3.4,0.9c-1,0.6-1.8,1.5-2.3,2.6c-0.6,1.1-0.8,2.4-0.8,3.9v0.2
		C356.1,254.9,356.8,256.7,358,258.1z M343.6,248.5c0.8-1,1.8-1.5,3-1.5c1.3,0,2.3,0.5,3,1.5c0.8,1,1.1,2.3,1.1,3.9
		c0,1.8-0.4,3.2-1.1,4.2c-0.7,1-1.8,1.5-3,1.5c-1.3,0-2.3-0.5-3-1.5c-0.8-1-1.1-2.3-1.1-3.9C342.5,250.9,342.8,249.5,343.6,248.5z
		 M341.8,258.1c1.2,1.4,2.8,2.1,4.8,2.1c1.3,0,2.5-0.3,3.5-0.9c1-0.6,1.8-1.5,2.3-2.6c0.5-1.1,0.8-2.4,0.8-3.8v-0.2
		c0-2.3-0.6-4.1-1.8-5.5s-2.8-2.1-4.8-2.1c-1.3,0-2.4,0.3-3.4,0.9c-1,0.6-1.8,1.5-2.3,2.6c-0.6,1.1-0.8,2.4-0.8,3.9v0.2
		C340,254.9,340.6,256.7,341.8,258.1z M322.2,255.8c0.7,1.4,1.6,2.5,2.9,3.2c1.2,0.7,2.7,1.1,4.3,1.1c1.6,0,3-0.2,4.2-0.7
		c1.2-0.5,2.1-1.2,2.8-2.1v-7.2h-7.1v2.1h4.5v4.4c-0.5,0.5-1.1,0.9-1.8,1.1c-0.7,0.2-1.6,0.3-2.6,0.3c-1.7,0-3.1-0.6-4.1-1.9
		c-1-1.3-1.5-3.1-1.5-5.3v-1.6c0-2.3,0.5-4.1,1.4-5.3c0.9-1.2,2.2-1.8,3.9-1.8c2.6,0,4.2,1.3,4.6,3.9h2.6c-0.3-1.9-1-3.4-2.3-4.5
		c-1.3-1-2.9-1.6-5-1.6c-2.5,0-4.4,0.8-5.8,2.4c-1.4,1.6-2.1,3.9-2.1,6.9v1.7C321.2,252.8,321.5,254.4,322.2,255.8z M301,259.9
		v-10.4c0.3-0.7,0.8-1.3,1.4-1.7c0.6-0.4,1.3-0.6,2.1-0.6c1,0,1.7,0.3,2.2,0.8c0.5,0.5,0.7,1.3,0.7,2.3v9.7h2.5v-9.6
		c0-3.5-1.6-5.2-4.7-5.2c-1.8,0-3.2,0.7-4.3,2v-7.9h-2.5v20.7H301z M290,247.2v9c0,1.2,0.3,2.2,0.8,2.9c0.6,0.7,1.4,1,2.5,1
		c0.6,0,1.3-0.1,1.9-0.3v-2c-0.5,0.1-0.9,0.2-1.2,0.2c-0.6,0-1-0.1-1.2-0.4c-0.2-0.3-0.4-0.7-0.4-1.3v-9.1h2.7v-1.9h-2.7v-3.5H290
		v3.5h-2.7v1.9H290z M284.7,259.9v-14.6h-2.5v14.6H284.7z M282.4,242.4c0.2,0.3,0.6,0.4,1.1,0.4c0.5,0,0.9-0.1,1.1-0.4
		c0.3-0.3,0.4-0.6,0.4-1s-0.1-0.7-0.4-1c-0.3-0.3-0.6-0.4-1.1-0.4c-0.5,0-0.9,0.1-1.1,0.4c-0.2,0.3-0.4,0.6-0.4,1
		S282.1,242.1,282.4,242.4z M263.7,259.9h2l3.5-11.1l3.6,11.1h2l4.2-14.6h-2.5l-2.8,11.2l-3.5-11.2h-2l-3.4,10.9l-2.9-10.9h-2.5
		L263.7,259.9z M240.4,259.9v-10.4c0.3-0.7,0.8-1.3,1.4-1.7c0.6-0.4,1.3-0.6,2.1-0.6c1,0,1.7,0.3,2.2,0.8c0.5,0.5,0.7,1.3,0.7,2.3
		v9.7h2.5v-9.6c0-3.5-1.6-5.2-4.7-5.2c-1.8,0-3.3,0.7-4.4,2.1l-0.1-1.8h-2.4v14.6H240.4z M233.5,259.9v-14.6H231v14.6H233.5z
		 M231.2,242.4c0.2,0.3,0.6,0.4,1.1,0.4c0.5,0,0.9-0.1,1.1-0.4c0.3-0.3,0.4-0.6,0.4-1s-0.1-0.7-0.4-1c-0.3-0.3-0.6-0.4-1.1-0.4
		c-0.5,0-0.9,0.1-1.1,0.4c-0.2,0.3-0.4,0.6-0.4,1S230.9,242.1,231.2,242.4z M210.4,259.9v-10.4c0.3-0.7,0.8-1.3,1.4-1.7
		c0.6-0.4,1.3-0.6,2.1-0.6c1,0,1.7,0.3,2.2,0.8c0.5,0.5,0.7,1.3,0.7,2.3v9.7h2.5v-9.6c0-3.5-1.6-5.2-4.7-5.2c-1.8,0-3.3,0.7-4.4,2.1
		l-0.1-1.8h-2.4v14.6H210.4z M194.9,248.5c0.7-0.9,1.6-1.4,2.9-1.4c1.5,0,2.7,0.7,3.4,2.1v6.7c-0.7,1.4-1.9,2.1-3.5,2.1
		c-1.2,0-2.2-0.5-2.8-1.4c-0.7-0.9-1-2.2-1-3.9C193.9,250.9,194.2,249.5,194.9,248.5z M192.9,258.1c1.1,1.4,2.4,2.1,4.1,2.1
		c1.7,0,3.1-0.6,4.1-1.7v1.3c0,1.2-0.3,2.2-1,2.9c-0.7,0.7-1.6,1-2.8,1c-1.5,0-2.9-0.7-3.9-2l-1.3,1.5c0.5,0.8,1.3,1.4,2.3,1.8
		c1,0.4,2,0.7,3.1,0.7c1.9,0,3.4-0.5,4.5-1.6c1.1-1.1,1.7-2.6,1.7-4.5v-14.2h-2.3l-0.1,1.6c-1-1.3-2.4-1.9-4.2-1.9
		c-1.7,0-3.1,0.7-4.2,2c-1.1,1.3-1.6,3.2-1.6,5.4C191.4,254.8,191.9,256.7,192.9,258.1z M187.5,259.9v-14.6h-2.5v14.6H187.5z
		 M185.2,242.4c0.2,0.3,0.6,0.4,1.1,0.4c0.5,0,0.9-0.1,1.1-0.4c0.3-0.3,0.4-0.6,0.4-1s-0.1-0.7-0.4-1c-0.3-0.3-0.6-0.4-1.1-0.4
		c-0.5,0-0.9,0.1-1.1,0.4c-0.2,0.3-0.4,0.6-0.4,1S185,242.1,185.2,242.4z M168.2,257.2c0.6,0.9,1.5,1.6,2.7,2.1
		c1.2,0.5,2.4,0.8,3.8,0.8c2.1,0,3.7-0.5,5-1.4c1.2-1,1.9-2.2,1.9-3.8c0-1-0.2-1.9-0.7-2.6c-0.4-0.7-1.1-1.4-2-1.9
		c-0.9-0.6-2.2-1.1-3.8-1.5c-1.6-0.5-2.8-1-3.5-1.5c-0.7-0.6-1-1.2-1-2c0-1,0.4-1.8,1.1-2.3c0.7-0.6,1.7-0.8,3-0.8
		c1.4,0,2.4,0.3,3.2,1c0.8,0.7,1.1,1.6,1.1,2.8h2.6c0-1.1-0.3-2.1-0.9-3c-0.6-0.9-1.4-1.6-2.5-2.2c-1.1-0.5-2.3-0.8-3.6-0.8
		c-2,0-3.6,0.5-4.8,1.5c-1.2,1-1.8,2.3-1.8,3.8c0,1.4,0.5,2.5,1.5,3.4c1,0.9,2.6,1.7,4.8,2.4c1.8,0.5,3,1,3.7,1.6
		c0.7,0.5,1,1.3,1,2.2c0,1-0.4,1.7-1.1,2.3c-0.7,0.6-1.8,0.8-3.1,0.8c-1.5,0-2.6-0.3-3.5-1c-0.9-0.7-1.3-1.6-1.3-2.8h-2.6
		C167.2,255.3,167.5,256.3,168.2,257.2z"/>
</g>
</svg>
